Coordinates
version=1
nRows=8
nColumns=40
inDegrees=yes

Units are S.I. units (second, meters, Newtons, ...)
Angles are in degrees.

endheader
time	pelvis_tilt	pelvis_list	pelvis_rotation	pelvis_tx	pelvis_ty	pelvis_tz	hip_flexion_r	hip_adduction_r	hip_rotation_r	knee_angle_r	knee_angle_r_beta	ankle_angle_r	subtalar_angle_r	mtp_angle_r	hip_flexion_l	hip_adduction_l	hip_rotation_l	knee_angle_l	knee_angle_l_beta	ankle_angle_l	subtalar_angle_l	mtp_angle_l	lumbar_extension	lumbar_bending	lumbar_rotation	arm_flex_r	arm_add_r	arm_rot_r	elbow_flex_r	pro_sup_r	wrist_flex_r	wrist_dev_r	arm_flex_l	arm_add_l	arm_rot_l	elbow_flex_l	pro_sup_l	wrist_flex_l	wrist_dev_l
      5.25000000	      6.62578478	     19.24821353	     83.14664414	      0.62881247	      1.00608933	     -0.94255129	    -29.79567518	      4.80797840	      1.28874289	      1.90684081	      0.03328065	     14.63458988	      0.00000000	      0.00000000	      1.75615805	     -9.14697283	     -9.38616853	      1.05187409	      0.01835867	      7.01706003	      0.00000000	      0.00000000	    -38.41309497	      4.11180911	      8.82480560	     12.18583131	    -18.87998814	      6.21962026	    144.54431267	     87.49942044	      0.00000000	      0.00000000	      2.98985151	     -3.99902267	      2.69998957	    139.75054034	     85.46876458	      0.00000000	      0.00000000
      5.26000000	      6.95660239	     18.86079829	     83.68093966	      0.62739058	      1.00286666	     -0.94129052	    -29.79812721	      5.33601790	      1.07836592	      2.59812525	      0.04534584	     15.53827027	      0.00000000	      0.00000000	      2.94062413	     -9.52785411	     -7.95474429	      0.66317456	      0.01157458	      7.53649216	      0.00000000	      0.00000000	    -38.15066254	      4.64886940	      8.46450966	     12.41718643	    -18.70645309	      6.18417959	    144.48982828	     87.59984252	      0.00000000	      0.00000000	      3.18066722	     -3.90561043	      2.56835530	    139.72576270	     85.81351581	      0.00000000	      0.00000000
      5.27000000	      7.06721555	     18.60733219	     84.00285894	      0.62586924	      0.99982817	     -0.94062629	    -29.80565260	      5.47086215	      0.76997638	      3.55188240	      0.06199204	     16.58495801	      0.00000000	      0.00000000	      3.81603580	     -9.61770844	     -6.87044384	      0.59524143	      0.01038892	      8.08055190	      0.00000000	      0.00000000	    -37.90823922	      4.86307095	      8.17943518	     12.57455868	    -18.52791399	      6.13604502	    144.44353130	     87.58677548	      0.00000000	      0.00000000	      3.25079128	     -3.80028365	      2.57448657	    139.71647855	     85.83022334	      0.00000000	      0.00000000
      5.28000000	      7.12720230	     18.52009612	     83.86550628	      0.62467732	      0.99719427	     -0.94051765	    -29.81703674	      5.28145215	      0.64622802	      4.87532100	      0.08509040	     17.66159315	      0.00000000	      0.00000000	      4.19551569	     -9.62123040	     -6.27961548	      0.71264758	      0.01243805	      8.49749540	      0.00000000	      0.00000000	    -37.77180781	      4.78452269	      8.23355563	     12.64692291	    -18.44261380	      6.11191125	    144.41940075	     87.58963344	      0.00000000	      0.00000000	      3.28134628	     -3.66671161	      2.69313563	    139.65899867	     85.72624708	      0.00000000	      0.00000000
      5.29000000	      7.11404968	     18.58365464	     83.48322629	      0.62360038	      0.99494459	     -0.94089175	    -29.82820336	      4.85352673	      0.61026781	      6.53593974	      0.11407367	     18.70370387	      0.00000000	      0.00000000	      4.27812379	     -9.51646055	     -6.02351821	      1.16905315	      0.02040383	      8.43065774	      0.00000000	      0.00000000	    -37.72263116	      4.50346566	      8.42738764	     12.66601335	    -18.32502472	      6.05852635	    144.38704911	     87.60485633	      0.00000000	      0.00000000	      3.28783413	     -3.49669847	      2.77034060	    139.57591716	     85.71659965	      0.00000000	      0.00000000
      5.30000000	      7.11750439	     18.64268067	     83.13866609	      0.62248202	      0.99256197	     -0.94162674	    -29.83308424	      4.45097197	      0.61909392	      8.23718170	      0.14376594	     19.78951420	      0.00000000	      0.00000000	      4.54826048	     -9.44085104	     -5.96445308	      2.37881876	      0.04151822	      8.68666956	      0.00000000	      0.00000000	    -37.59875861	      4.26151181	      8.60582566	     12.58475751	    -18.17244698	      5.99835547	    144.36984498	     87.56753408	      0.00000000	      0.00000000	      3.23338579	     -3.41144065	      2.83300110	    139.50259317	     85.80957474	      0.00000000	      0.00000000
      5.31000000	      7.05473902	     18.72390405	     82.74966433	      0.62134195	      0.99020353	     -0.94258019	    -29.83729407	      3.94395240	      0.71427320	      9.98011642	      0.17418589	     20.66917685	      0.00000000	      0.00000000	      4.92808646	     -9.31349748	     -6.15344180	      4.31252439	      0.07526775	      8.93714020	      0.00000000	      0.00000000	    -37.44703737	      3.92468526	      8.78641298	     12.51998172	    -18.03438394	      5.89852600	    144.34157323	     87.57437378	      0.00000000	      0.00000000	      3.21631505	     -3.35540978	      2.87964478	    139.44783156	     85.86757881	      0.00000000	      0.00000000
      5.32000000	      6.89180115	     18.81941420	     82.44841476	      0.61996006	      0.98797927	     -0.94370100	    -29.84168023	      3.37254086	      0.89062843	     11.72841375	      0.20469944	     21.05513440	      0.00000000	      0.00000000	      5.32942484	     -9.04725601	     -6.23774167	      6.58684390	      0.11496211	      8.67353863	      0.00000000	      0.00000000	    -37.27363137	      3.53649251	      8.87131257	     12.40536740	    -17.82878605	      5.73264916	    144.33853489	     87.57209552	      0.00000000	      0.00000000	      3.20765503	     -3.33739975	      2.94108475	    139.39050349	     85.89494694	      0.00000000	      0.00000000
